Coordinates
version=1
nRows=26
nColumns=22
inDegrees=yes

Units are S.I. units (second, meters, Newtons, ...)
If the header above contains a line with 'inDegrees', this indicates whether rotational values are in degrees (yes) or radians (no).

endheader
time	pelvis_tilt	pelvis_list	pelvis_rotation	pelvis_tx	pelvis_ty	pelvis_tz	hip_flexion_r	hip_adduction_r	hip_rotation_r	knee_angle_r	ankle_angle_r	subtalar_angle_r	hip_flexion_l	hip_adduction_l	hip_rotation_l	knee_angle_l	ankle_angle_l	subtalar_angle_l	lumbar_extension	lumbar_bending	lumbar_rotation
      3.89000000	     -4.68615706	     -0.06999637	    -84.24618392	      0.03237793	      0.93187368	      0.78033422	     -1.75082959	     13.61485378	     17.35057363	    -22.00734821	     17.31998419	     -5.89088453	     29.46214204	     -9.89493170	      6.81588995	    -15.09446878	     11.12399404	      9.04852395	     -6.09906864	      3.37551478	     12.34353293
      3.90000000	     -4.81657343	      0.05443576	    -84.73989775	      0.03469662	      0.93061843	      0.78713281	     -1.96007582	     13.61119559	     17.59001188	    -22.33741858	     17.57717734	     -5.78919324	     29.60661674	    -10.12143712	      5.96371538	    -14.31949708	     11.24461112	      9.13653015	     -6.00239937	      3.47816295	     12.48117649
      3.91000000	     -4.94293557	      0.16245318	    -85.21157952	      0.03710599	      0.92941921	      0.79403785	     -2.19900419	     13.59535984	     17.83165938	    -22.65778153	     17.80911715	     -5.69015761	     29.76728465	    -10.31310975	      5.10381130	    -13.83242382	     11.32370966	      9.22513570	     -5.92103401	      3.58377299	     12.59408153
      3.92000000	     -5.06896053	      0.25398342	    -85.65664374	      0.03961000	      0.92828635	      0.80105339	     -2.46979102	     13.56857534	     18.08037784	    -22.96106278	     18.01008235	     -5.59264040	     29.94246610	    -10.47252636	      4.28575824	    -13.62683250	     11.34592189	      9.29309434	     -5.85635232	      3.69404359	     12.67661960
      3.93000000	     -5.19219353	      0.33385330	    -86.07974921	      0.04219622	      0.92722729	      0.80820365	     -2.77149923	     13.52709959	     18.34988680	    -23.24346248	     18.17302356	     -5.47806234	     30.12034708	    -10.60138294	      3.55028218	    -13.67226222	     11.30204317	      9.32699562	     -5.79948675	      3.80547700	     12.72999160
      3.94000000	     -5.31439663	      0.40673277	    -86.47027133	      0.04487331	      0.92623728	      0.81550554	     -3.09763408	     13.47373146	     18.62893803	    -23.50671217	     18.28434238	     -5.36466393	     30.30131696	    -10.69685137	      2.93099197	    -13.94487505	     11.17573032	      9.28018767	     -5.74136318	      3.91652129	     12.74869616
      3.95000000	     -5.43030524	      0.47772115	    -86.84209704	      0.04761745	      0.92532363	      0.82295985	     -3.44009189	     13.40343423	     18.93024474	    -23.75756322	     18.34773998	     -5.22091141	     30.47108887	    -10.76210996	      2.42764888	    -14.39927637	     10.93951644	      9.13108886	     -5.67730332	      4.01984501	     12.75033091
      3.96000000	     -5.52893564	      0.54668397	    -87.17005743	      0.05051428	      0.92448991	      0.83056110	     -3.78854622	     13.29781448	     19.19170621	    -24.00392211	     18.40329292	     -4.89520483	     30.61828242	    -10.76483446	      2.08368174	    -14.98339282	     10.50456577	      8.61143001	     -5.60777336	      4.11348328	     12.70063890
      3.97000000	     -5.61488456	      0.62549828	    -87.48118746	      0.05344642	      0.92374244	      0.83829957	     -4.13106278	     13.17710877	     19.47016465	    -24.24922155	     18.36281822	     -4.65182846	     30.75484251	    -10.73316290	      1.86284960	    -15.67598832	      9.92321834	      8.03654240	     -5.51970878	      4.18576541	     12.64371488
      3.98000000	     -5.66995296	      0.71648100	    -87.76115489	      0.05648472	      0.92309696	      0.84614699	     -4.44956578	     13.01974657	     19.72620557	    -24.51261589	     18.27103107	     -4.37705455	     30.87249302	    -10.63437658	      1.77876465	    -16.41988715	      9.12093689	      7.26034739	     -5.41563931	      4.22697152	     12.55668043
      3.99000000	     -5.67968168	      0.82905806	    -88.00803499	      0.05962136	      0.92255953	      0.85409701	     -4.72375791	     12.81678041	     19.95053600	    -24.80995593	     18.12216618	     -4.07851461	     30.98643805	    -10.45500572	      1.81162967	    -17.19294817	      8.11294758	      6.32517946	     -5.28417771	      4.21814084	     12.43417139
      4.00000000	     -5.64142765	      0.95208913	    -88.21291657	      0.06287450	      0.92216403	      0.86212459	     -4.95033050	     12.56945756	     20.11184537	    -25.15830735	     17.91125346	     -3.74230596	     31.09182889	    -10.18856025	      1.96066632	    -17.97139120	      6.92315646	      5.26081950	     -5.14087896	      4.15883940	     12.27588276
      4.01000000	     -5.55807793	      1.09062476	    -88.38914098	      0.06620157	      0.92191965	      0.87022853	     -5.11827181	     12.28778438	     20.23456110	    -25.56979134	     17.62470695	     -3.37254535	     31.20363505	     -9.85198439	      2.17186951	    -18.75593932	      5.63479822	      4.14241383	     -4.97857322	      4.04899178	     12.09779624
      4.02000000	     -5.42927612	      1.24717683	    -88.53286430	      0.06961165	      0.92183504	      0.87840893	     -5.21504743	     11.97302523	     20.29988647	    -26.05728036	     17.24912777	     -2.96313056	     31.32243194	     -9.44571153	      2.43273884	    -19.53507257	      4.31716537	      3.03712115	     -4.79393127	      3.89137983	     11.89816957
      4.03000000	     -5.28131178	      1.39809128	    -88.66654845	      0.07305217	      0.92195645	      0.88666594	     -5.26608806	     11.65533166	     20.34151388	    -26.62001493	     16.74537030	     -2.45119556	     31.41947474	     -9.01636548	      2.70321552	    -20.30644009	      3.05217847	      1.98511690	     -4.61246246	      3.71502302	     11.72122976
      4.04000000	     -5.09466184	      1.56361420	    -88.75866346	      0.07655241	      0.92221761	      0.89501532	     -5.23631249	     11.30929585	     20.26350584	    -27.26895461	     16.17443743	     -1.92982189	     31.52351513	     -8.53488682	      2.98092643	    -21.08401930	      1.92856001	      1.16469324	     -4.40171492	      3.49241104	     11.50231632
      4.05000000	     -4.90633120	      1.71791128	    -88.85149782	      0.08006787	      0.92267964	      0.90342246	     -5.15405506	     10.97148262	     20.14122532	    -28.00177098	     15.45899836	     -1.24625909	     31.58079439	     -8.06414299	      3.22512760	    -21.82788158	      0.91968477	      0.44713157	     -4.19983563	      3.27748256	     11.31452475
      4.06000000	     -4.72397120	      1.85482486	    -88.94009473	      0.08357066	      0.92331656	      0.91188237	     -5.02727070	     10.65000505	     19.97772526	    -28.81070358	     14.63567018	     -0.39617538	     31.58333165	     -7.61775358	      3.42400025	    -22.53411745	      0.07805039	     -0.09309609	     -4.00840651	      3.06999387	     11.14082964
      4.07000000	     -4.55749397	      1.96841945	    -89.03336676	      0.08703678	      0.92413466	      0.92038747	     -4.87658993	     10.35172219	     19.81085671	    -29.66755456	     13.68532823	      0.66377375	     31.51706591	     -7.21629195	      3.54899496	    -23.18685568	     -0.60779564	     -0.46969927	     -3.83408281	      2.88371312	     10.97869156
      4.08000000	     -4.41471447	      2.06417450	    -89.10636665	      0.09053828	      0.92505388	      0.92886362	     -4.67166854	     10.07163664	     19.54426936	    -30.59327213	     12.65421270	      1.83661057	     31.41714789	     -6.84692264	      3.62994572	    -23.81574894	     -1.16125787	     -0.73116962	     -3.67687873	      2.73137073	     10.83379492
      4.09000000	     -4.30924779	      2.13144905	    -89.19157693	      0.09398750	      0.92610928	      0.93732422	     -4.45137926	      9.83434769	     19.32178795	    -31.55350247	     11.49150880	      3.28748730	     31.24200006	     -6.54518865	      3.62383139	    -24.37319300	     -1.56661086	     -0.94561720	     -3.54623683	      2.62763940	     10.69454447
      4.10000000	     -4.24248657	      2.17579647	    -89.27689620	      0.09738921	      0.92723484	      0.94571924	     -4.19713095	      9.63992898	     19.10443985	    -32.56341559	     10.24487263	      4.91599601	     31.01762150	     -6.29879744	      3.56228367	    -24.88306701	     -1.81641473	     -1.14925886	     -3.44113768	      2.57175337	     10.56096003
      4.11000000	     -4.20097523	      2.19726492	    -89.36267029	      0.10074490	      0.92840593	      0.95403029	     -3.90436622	      9.47435110	     18.89922879	    -33.63252542	      8.96250119	      6.73673101	     30.74086068	     -6.08936012	      3.44179038	    -25.34032109	     -1.88750937	     -1.39081699	     -3.36344807	      2.55049492	     10.42150693
      4.12000000	     -4.19726637	      2.21199857	    -89.43878454	      0.10403114	      0.92956499	      0.96219221	     -3.54396286	      9.35697626	     18.69453557	    -34.77724966	      7.66298432	      8.67734746	     30.44901336	     -5.91428889	      3.33024490	    -25.76671321	     -1.84643136	     -1.69196660	     -3.30143570	      2.57385119	     10.27857819
      4.13000000	     -4.19722319	      2.20988000	    -89.51944857	      0.10722247	      0.93072343	      0.97022375	     -3.12151763	      9.24924548	     18.49005894	    -36.01618058	      6.41469483	     10.73566907	     30.10790587	     -5.75001291	      3.18555177	    -26.13398323	     -1.64770206	     -2.04115516	     -3.26535867	      2.60267960	     10.11161287
      4.14000000	     -4.21104657	      2.20810516	    -89.59159254	      0.11031088	      0.93181172	      0.97806074	     -2.60452261	      9.16411698	     18.25939335	    -37.36805088	      5.25629543	     12.81209405	     29.77319661	     -5.59560594	      3.05331581	    -26.49633720	     -1.34432894	     -2.44052486	     -3.24179388	      2.64537320	      9.93479703
